<svg width="16" height="21" viewBox="0 0 16 21" fill="none" xmlns="http://www.w3.org/2000/svg">
<path d="M5 14.0562H5.01M5 3.05615H3C2.46957 3.05615 1.96086 3.26687 1.58579 3.64194C1.21071 4.01701 1 4.52572 1 5.05615V17.0562C1 17.5866 1.21071 18.0953 1.58579 18.4704C1.96086 18.8454 2.46957 19.0562 3 19.0562H13C13.5304 19.0562 14.0391 18.8454 14.4142 18.4704C14.7893 18.0953 15 17.5866 15 17.0562V5.05615C15 4.52572 14.7893 4.01701 14.4142 3.64194C14.0391 3.26687 13.5304 3.05615 13 3.05615H11H5ZM5 3.05615C5 3.58659 5.21071 4.09529 5.58579 4.47037C5.96086 4.84544 6.46957 5.05615 7 5.05615H9C9.53043 5.05615 10.0391 4.84544 10.4142 4.47037C10.7893 4.09529 11 3.58659 11 3.05615H5ZM5 3.05615C5 2.52572 5.21071 2.01701 5.58579 1.64194C5.96086 1.26687 6.46957 1.05615 7 1.05615H9C9.53043 1.05615 10.0391 1.26687 10.4142 1.64194C10.7893 2.01701 11 2.52572 11 3.05615H5ZM8 10.0562H11H8ZM8 14.0562H11H8ZM5 10.0562H5.01H5Z" stroke="white" stroke-width="2" stroke-linecap="round" stroke-linejoin="round"/>
</svg>
