<svg width="19" height="18" viewBox="0 0 19 18" fill="none" xmlns="http://www.w3.org/2000/svg">
<path fill-rule="evenodd" clip-rule="evenodd" d="M0 2C0 0.89543 0.908154 0 2.02842 0H16.2274C17.3477 0 18.2558 0.89543 18.2558 2V16C18.2558 17.1046 17.3477 18 16.2274 18H2.02842C0.908154 18 0 17.1046 0 16V2ZM2.02842 2H4.05684V3C4.05684 4.65685 5.41907 6 7.09947 6H11.1563C12.8368 6 14.1989 4.65685 14.1989 3V2H16.2274V16H2.02842V2ZM6.08526 3V2H12.1705V3C12.1705 3.55228 11.7165 4 11.1563 4H7.09947C6.53934 4 6.08526 3.55228 6.08526 3ZM5.07105 8C4.51092 8 4.05684 8.4477 4.05684 9C4.05684 9.5523 4.51092 10 5.07105 10H13.1437C13.7038 10 14.1579 9.5523 14.1579 9C14.1579 8.4477 13.7038 8 13.1437 8H5.07105ZM5.11215 12.0665C4.55202 12.0665 4.09794 12.5142 4.09794 13.0665C4.09794 13.6188 4.55202 14.0665 5.11215 14.0665H13.1847C13.7449 14.0665 14.1989 13.6188 14.1989 13.0665C14.1989 12.5142 13.7449 12.0665 13.1847 12.0665H5.11215Z" fill="white"/>
</svg>
