<svg width="20" height="20" viewBox="0 0 20 20" fill="none" xmlns="http://www.w3.org/2000/svg">
<path d="M4.5 9.27832C3.90905 9.27832 3.32389 9.16192 2.77792 8.93578C2.23196 8.70963 1.73588 8.37816 1.31802 7.9603C0.900156 7.54244 0.568688 7.04636 0.342542 6.5004C0.116396 5.95443 0 5.36927 0 4.77832C0 4.18737 0.116396 3.60221 0.342542 3.05624C0.568688 2.51028 0.900156 2.0142 1.31802 1.59634C1.73588 1.17848 2.23196 0.847009 2.77792 0.620862C3.32389 0.394716 3.90905 0.27832 4.5 0.27832C5.69347 0.27832 6.83807 0.752426 7.68198 1.59634C8.52589 2.44025 9 3.58485 9 4.77832C9 5.97179 8.52589 7.11639 7.68198 7.9603C6.83807 8.80421 5.69347 9.27832 4.5 9.27832ZM5 19.2783C3.80653 19.2783 2.66193 18.8042 1.81802 17.9603C0.974106 17.1164 0.5 15.9718 0.5 14.7783C0.5 13.5848 0.974106 12.4403 1.81802 11.5963C2.66193 10.7524 3.80653 10.2783 5 10.2783C6.19347 10.2783 7.33807 10.7524 8.18198 11.5963C9.02589 12.4403 9.5 13.5848 9.5 14.7783C9.5 15.9718 9.02589 17.1164 8.18198 17.9603C7.33807 18.8042 6.19347 19.2783 5 19.2783ZM15 9.27832C14.4091 9.27832 13.8239 9.16192 13.2779 8.93578C12.732 8.70963 12.2359 8.37816 11.818 7.9603C11.4002 7.54244 11.0687 7.04636 10.8425 6.5004C10.6164 5.95443 10.5 5.36927 10.5 4.77832C10.5 4.18737 10.6164 3.60221 10.8425 3.05624C11.0687 2.51028 11.4002 2.0142 11.818 1.59634C12.2359 1.17848 12.732 0.847009 13.2779 0.620862C13.8239 0.394716 14.4091 0.27832 15 0.27832C16.1935 0.27832 17.3381 0.752426 18.182 1.59634C19.0259 2.44025 19.5 3.58485 19.5 4.77832C19.5 5.97179 19.0259 7.11639 18.182 7.9603C17.3381 8.80421 16.1935 9.27832 15 9.27832ZM15 19.2783C13.8065 19.2783 12.6619 18.8042 11.818 17.9603C10.9741 17.1164 10.5 15.9718 10.5 14.7783C10.5 13.5848 10.9741 12.4403 11.818 11.5963C12.6619 10.7524 13.8065 10.2783 15 10.2783C16.1935 10.2783 17.3381 10.7524 18.182 11.5963C19.0259 12.4403 19.5 13.5848 19.5 14.7783C19.5 15.9718 19.0259 17.1164 18.182 17.9603C17.3381 18.8042 16.1935 19.2783 15 19.2783ZM4.5 7.27832C5.16304 7.27832 5.79893 7.01493 6.26777 6.54609C6.73661 6.07725 7 5.44136 7 4.77832C7 4.11528 6.73661 3.47939 6.26777 3.01055C5.79893 2.54171 5.16304 2.27832 4.5 2.27832C3.83696 2.27832 3.20107 2.54171 2.73223 3.01055C2.26339 3.47939 2 4.11528 2 4.77832C2 5.44136 2.26339 6.07725 2.73223 6.54609C3.20107 7.01493 3.83696 7.27832 4.5 7.27832ZM5 17.2783C5.66304 17.2783 6.29893 17.0149 6.76777 16.5461C7.23661 16.0772 7.5 15.4414 7.5 14.7783C7.5 14.1153 7.23661 13.4794 6.76777 13.0106C6.29893 12.5417 5.66304 12.2783 5 12.2783C4.33696 12.2783 3.70107 12.5417 3.23223 13.0106C2.76339 13.4794 2.5 14.1153 2.5 14.7783C2.5 15.4414 2.76339 16.0772 3.23223 16.5461C3.70107 17.0149 4.33696 17.2783 5 17.2783ZM15 7.27832C15.663 7.27832 16.2989 7.01493 16.7678 6.54609C17.2366 6.07725 17.5 5.44136 17.5 4.77832C17.5 4.11528 17.2366 3.47939 16.7678 3.01055C16.2989 2.54171 15.663 2.27832 15 2.27832C14.337 2.27832 13.7011 2.54171 13.2322 3.01055C12.7634 3.47939 12.5 4.11528 12.5 4.77832C12.5 5.44136 12.7634 6.07725 13.2322 6.54609C13.7011 7.01493 14.337 7.27832 15 7.27832ZM15 17.2783C15.663 17.2783 16.2989 17.0149 16.7678 16.5461C17.2366 16.0772 17.5 15.4414 17.5 14.7783C17.5 14.1153 17.2366 13.4794 16.7678 13.0106C16.2989 12.5417 15.663 12.2783 15 12.2783C14.337 12.2783 13.7011 12.5417 13.2322 13.0106C12.7634 13.4794 12.5 14.1153 12.5 14.7783C12.5 15.4414 12.7634 16.0772 13.2322 16.5461C13.7011 17.0149 14.337 17.2783 15 17.2783Z" fill="white"/>
</svg>
