<svg width="20" height="21" viewBox="0 0 20 21" fill="none" xmlns="http://www.w3.org/2000/svg">
<path d="M5.29101 19.0564L1.15061 19.9767C0.614714 20.0958 0.136638 19.6177 0.255748 19.0818L1.17601 14.9414C0.401543 13.4928 -0.00246185 11.8751 1.12865e-05 10.2324C1.12865e-05 4.70942 4.47701 0.232422 10 0.232422C15.523 0.232422 20 4.70942 20 10.2324C20 15.7554 15.523 20.2324 10 20.2324C8.35737 20.2349 6.73963 19.8309 5.29101 19.0564ZM5.58101 16.9434L6.23401 17.2934C7.39256 17.9126 8.6864 18.2352 10 18.2324C11.5823 18.2324 13.129 17.7632 14.4446 16.8842C15.7602 16.0051 16.7855 14.7557 17.391 13.2939C17.9965 11.8321 18.155 10.2235 17.8463 8.6717C17.5376 7.11985 16.7757 5.69439 15.6569 4.57557C14.538 3.45675 13.1126 2.69482 11.5607 2.38614C10.0089 2.07746 8.40035 2.23588 6.93854 2.84139C5.47674 3.44689 4.22731 4.47227 3.34825 5.78786C2.4692 7.10345 2.00001 8.65017 2.00001 10.2324C2.00001 11.5664 2.32501 12.8504 2.94001 13.9984L3.28901 14.6514L2.7363 17.1382C2.68866 17.3525 2.87989 17.5438 3.09425 17.4961L5.58101 16.9434Z" fill="white"/>
</svg>
