<svg width="4" height="15" viewBox="0 0 4 15" fill="none" xmlns="http://www.w3.org/2000/svg">
<g opacity="0.4">
<path d="M2 8.14401C1.58579 8.14401 1.25 7.81031 1.25 7.39867C1.25 6.98702 1.58579 6.65332 2 6.65332C2.41421 6.65332 2.75 6.98702 2.75 7.39867C2.75 7.81031 2.41421 8.14401 2 8.14401Z" fill="#102844" stroke="black" stroke-width="2" stroke-linecap="round" stroke-linejoin="round"/>
<path d="M2 2.92624C1.58579 2.92624 1.25 2.59254 1.25 2.18089C1.25 1.76925 1.58579 1.43555 2 1.43555C2.41421 1.43555 2.75 1.76925 2.75 2.18089C2.75 2.59254 2.41421 2.92624 2 2.92624Z" fill="#102844" stroke="black" stroke-width="2" stroke-linecap="round" stroke-linejoin="round"/>
<path d="M2 13.3608C1.58579 13.3608 1.25 13.0271 1.25 12.6155C1.25 12.2038 1.58579 11.8701 2 11.8701C2.41421 11.8701 2.75 12.2038 2.75 12.6155C2.75 13.0271 2.41421 13.3608 2 13.3608Z" fill="#102844" stroke="black" stroke-width="2" stroke-linecap="round" stroke-linejoin="round"/>
</g>
</svg>
