<svg width="16" height="12" viewBox="0 0 16 12" fill="none" xmlns="http://www.w3.org/2000/svg">
<path fill-rule="evenodd" clip-rule="evenodd" d="M0.666504 2C0.666504 0.895433 1.56194 0 2.6665 0H13.3332C14.4378 0 15.3332 0.895433 15.3332 2V10C15.3332 11.1046 14.4378 12 13.3332 12H2.6665C1.56194 12 0.666504 11.1046 0.666504 10V2ZM2.6665 1.33333H13.3332C13.7014 1.33333 13.9998 1.63181 13.9998 2V10C13.9998 10.3682 13.7014 10.6667 13.3332 10.6667H2.6665C2.29832 10.6667 1.99984 10.3682 1.99984 10V2C1.99984 1.63181 2.29832 1.33333 2.6665 1.33333ZM3.99984 2.66667C3.63165 2.66667 3.33317 2.96515 3.33317 3.33333C3.33317 3.70152 3.63165 4 3.99984 4C4.36802 4 4.6665 3.70152 4.6665 3.33333C4.6665 2.96515 4.36802 2.66667 3.99984 2.66667ZM11.3332 3.33333C11.3332 2.96515 11.6316 2.66667 11.9998 2.66667C12.368 2.66667 12.6665 2.96515 12.6665 3.33333C12.6665 3.70152 12.368 4 11.9998 4C11.6316 4 11.3332 3.70152 11.3332 3.33333ZM3.33317 6C3.33317 5.6318 3.63165 5.33333 3.99984 5.33333C4.36802 5.33333 4.6665 5.6318 4.6665 6C4.6665 6.3682 4.36802 6.66667 3.99984 6.66667C3.63165 6.66667 3.33317 6.3682 3.33317 6ZM11.3332 6C11.3332 5.6318 11.6316 5.33333 11.9998 5.33333C12.368 5.33333 12.6665 5.6318 12.6665 6C12.6665 6.3682 12.368 6.66667 11.9998 6.66667C11.6316 6.66667 11.3332 6.3682 11.3332 6ZM3.33317 8.66667C3.33317 8.29847 3.63165 8 3.99984 8C4.36802 8 4.6665 8.29847 4.6665 8.66667C4.6665 9.03487 4.36802 9.33333 3.99984 9.33333C3.63165 9.33333 3.33317 9.03487 3.33317 8.66667ZM11.3332 8.66667C11.3332 8.29847 11.6316 8 11.9998 8C12.368 8 12.6665 8.29847 12.6665 8.66667C12.6665 9.03487 12.368 9.33333 11.9998 9.33333C11.6316 9.33333 11.3332 9.03487 11.3332 8.66667Z" fill="#767278"/>
</svg>
