<svg width="18" height="18" viewBox="0 0 18 18" fill="none" xmlns="http://www.w3.org/2000/svg">
<path opacity="0.5" d="M16.9499 8.46058L9.58342 15.7813C8.68098 16.6782 7.457 17.182 6.18075 17.182C4.90451 17.182 3.68053 16.6782 2.77808 15.7813C1.87564 14.8845 1.36865 13.6681 1.36865 12.3998C1.36865 11.1314 1.87564 9.91504 2.77808 9.0182L10.1445 1.69746C10.7462 1.09957 11.5621 0.763672 12.413 0.763672C13.2638 0.763672 14.0798 1.09957 14.6814 1.69746C15.283 2.29536 15.621 3.10628 15.621 3.95183C15.621 4.79739 15.283 5.60831 14.6814 6.20621L7.30696 13.5269C7.00615 13.8259 6.59815 13.9938 6.17274 13.9938C5.74732 13.9938 5.33933 13.8259 5.03852 13.5269C4.7377 13.228 4.5687 12.8225 4.5687 12.3998C4.5687 11.977 4.7377 11.5715 5.03852 11.2726L11.8439 4.51742" stroke="#102844" stroke-linecap="round" stroke-linejoin="round"/>
</svg>
