<svg width="16" height="16" viewBox="0 0 16 16" fill="none" xmlns="http://www.w3.org/2000/svg">
<path d="M10.9167 9.80608H10.2583L10.025 9.58247C10.8417 8.63837 11.3333 7.41269 11.3333 6.07935C11.3333 3.10624 8.90833 0.696289 5.91667 0.696289C2.925 0.696289 0.5 3.10624 0.5 6.07935C0.5 9.05245 2.925 11.4624 5.91667 11.4624C7.25833 11.4624 8.49167 10.9738 9.44167 10.1622L9.66667 10.3941V11.0483L13.8333 15.1809L15.075 13.9469L10.9167 9.80608ZM5.91667 9.80608C3.84167 9.80608 2.16667 8.14147 2.16667 6.07935C2.16667 4.01722 3.84167 2.35261 5.91667 2.35261C7.99167 2.35261 9.66667 4.01722 9.66667 6.07935C9.66667 8.14147 7.99167 9.80608 5.91667 9.80608Z" fill="#C9CED6"/>
</svg>
